<?xml version="1.0" encoding="utf-8"?>
<!-- Generator: Adobe Illustrator 20.0.0, SVG Export Plug-In . SVG Version: 6.00 Build 0)  -->
<svg version="1.1" xmlns="http://www.w3.org/2000/svg" xmlns:xlink="http://www.w3.org/1999/xlink" x="0px" y="0px"
	 viewBox="0 0 594 252" style="enable-background:new 0 0 594 252;" xml:space="preserve">
<style type="text/css">
	.st0{fill:none;stroke:#000000;stroke-miterlimit:10;}
	.st1{fill:none;stroke:#000000;stroke-width:8;stroke-miterlimit:10;}
	.st2{fill:none;stroke:#000000;stroke-width:8;stroke-linecap:square;stroke-miterlimit:10;}
	.st3{fill:none;stroke:#000000;stroke-width:8;stroke-linecap:round;stroke-miterlimit:10;}
	.st4{fill:none;stroke:#000000;stroke-width:8;stroke-linecap:round;stroke-linejoin:round;stroke-miterlimit:10;}
	.st5{fill:none;stroke:#000000;stroke-width:12;stroke-linecap:round;stroke-miterlimit:10;}
	.st6{fill:none;stroke:#000000;stroke-width:10;stroke-linecap:round;stroke-miterlimit:10;}
	.st7{display:none;fill:none;stroke:#ED1C24;stroke-width:8;stroke-linecap:square;stroke-miterlimit:10;}
	.st8{fill:none;stroke:#000000;stroke-width:4;stroke-linecap:round;stroke-linejoin:round;stroke-miterlimit:10;}
	.st9{fill:none;stroke:#000000;stroke-width:4;stroke-linecap:round;stroke-miterlimit:10;}
	.st10{fill:none;stroke:#000000;stroke-width:12;stroke-linecap:round;stroke-linejoin:round;stroke-miterlimit:10;}
	.st11{fill:none;stroke:#000000;stroke-width:16;stroke-linecap:round;stroke-linejoin:round;stroke-miterlimit:10;}
	.st12{fill:none;stroke:#000000;stroke-width:2;stroke-linecap:round;stroke-linejoin:round;stroke-miterlimit:10;}
	.st13{fill:none;stroke:#000000;stroke-width:12;stroke-miterlimit:10;}
	.st14{fill:none;stroke:#000000;stroke-width:11;stroke-linecap:round;stroke-miterlimit:10;}
	.st15{fill:none;stroke:#000000;stroke-width:15;stroke-linecap:round;stroke-miterlimit:10;}
	.st16{fill:#A7A9AC;}
	.st17{fill:#FFFFFF;}
	.st18{stroke:#000000;stroke-width:16;stroke-linecap:round;stroke-linejoin:round;stroke-miterlimit:10;}
	.st19{fill:none;stroke:#A8AAAB;stroke-linecap:round;stroke-linejoin:round;stroke-miterlimit:10;}
	.st20{fill:none;stroke:#6D6E71;stroke-width:2;stroke-linecap:round;stroke-linejoin:round;stroke-miterlimit:10;}
	.st21{fill:none;stroke:#A8AAAB;stroke-miterlimit:10;}
	.st22{fill:none;stroke:#6D6E71;stroke-width:2;stroke-miterlimit:10;}
	.st23{fill:none;stroke:#A7A9AC;stroke-linecap:round;stroke-linejoin:round;stroke-miterlimit:10;}
	.st24{fill:none;stroke:#6D6E71;stroke-width:12;stroke-linecap:round;stroke-linejoin:round;stroke-miterlimit:10;}
	.st25{fill:#595A5C;stroke:#58595B;stroke-width:16;stroke-linecap:round;stroke-linejoin:round;stroke-miterlimit:10;}
	.st26{fill:none;stroke:#A7A9AC;stroke-width:6;stroke-linecap:round;stroke-linejoin:round;stroke-miterlimit:10;}
	.st27{fill:none;stroke:#A7A9AC;stroke-width:8;stroke-linecap:round;stroke-linejoin:round;stroke-miterlimit:10;}
	.st28{fill:none;stroke:#6D6E71;stroke-width:16;stroke-linecap:round;stroke-linejoin:round;stroke-miterlimit:10;}
	.st29{fill:#6D6E71;}
	.st30{fill:#A8AAAB;}
	.st31{fill:#595A5C;}
	.st32{fill:#58595B;}
	.st33{fill:#050606;}
	.st34{display:none;fill:#050606;}
	.st35{fill:none;stroke:#58595B;stroke-width:2;stroke-linecap:round;stroke-linejoin:round;stroke-miterlimit:10;}
	.st36{fill:none;stroke:#58595B;stroke-width:16;stroke-linecap:round;stroke-linejoin:round;stroke-miterlimit:10;}
	.st37{fill:none;stroke:#58595B;stroke-width:8;stroke-linecap:round;stroke-linejoin:round;stroke-miterlimit:10;}
	.st38{fill:none;stroke:#58595B;stroke-width:12;stroke-linecap:round;stroke-linejoin:round;stroke-miterlimit:10;}
	.st39{fill:none;stroke:#939598;stroke-width:16;stroke-linecap:round;stroke-linejoin:round;stroke-miterlimit:10;}
	.st40{display:none;}
	.st41{display:inline;fill:none;stroke:#6D6E71;stroke-linecap:round;stroke-linejoin:round;stroke-miterlimit:10;}
	.st42{display:inline;fill:none;stroke:#58595B;stroke-width:2;stroke-linecap:round;stroke-linejoin:round;stroke-miterlimit:10;}
	.st43{fill:none;}
	.st44{fill:none;stroke:#000000;stroke-width:2;stroke-linecap:round;stroke-linejoin:round;}
	.st45{fill:none;stroke:#000000;stroke-linecap:round;stroke-linejoin:round;}
	.st46{fill:none;stroke:#000000;stroke-linecap:round;stroke-linejoin:round;stroke-miterlimit:10;}
	.st47{fill:none;stroke:#000000;stroke-width:6;stroke-linecap:round;stroke-linejoin:round;}
	.st48{fill:none;stroke:#000000;stroke-width:6;stroke-linejoin:round;}
	.st49{fill:none;stroke:#000000;stroke-width:6;stroke-linecap:square;stroke-linejoin:round;}
	.st50{fill:none;stroke:#000000;stroke-width:6;stroke-linecap:round;stroke-miterlimit:10;}
	.st51{fill:none;stroke:#000000;stroke-width:4;stroke-linecap:square;stroke-miterlimit:10;}
	.st52{fill:none;stroke:#000000;stroke-width:4;stroke-linecap:round;stroke-linejoin:round;}
	.st53{display:inline;}
	.st54{fill:none;stroke:#000000;stroke-width:4;stroke-linecap:square;stroke-linejoin:round;stroke-miterlimit:10;}
</style>
<g id="Layer_1">
</g>
<g id="Layer_6">
	<rect class="st34" width="594" height="252"/>
	<g>
		<g>
			<g>
				<g>
					<path class="st29" d="M540.1,178.5c0,0,0-0.1,0-0.1c0,0,0-0.1,0-0.1c0,0,0,0,0-0.1c0,0,0,0,0,0c0,0,0-0.1,0-0.1
						c0,0,0-0.1-0.1-0.1c0,0,0-0.1-0.1-0.1c0,0,0,0,0,0l-24.2-24.2c0,0,0,0-0.1,0c0,0-0.1-0.1-0.1-0.1c-0.1,0-0.1-0.1-0.2-0.1
						c-0.1,0-0.1,0-0.2,0c-0.1,0-0.1,0-0.2,0c-0.1,0-0.1,0-0.2,0c-0.1,0-0.1,0-0.2,0.1c0,0-0.1,0-0.1,0l-18.3,11.6l-40.7-11.7
						c0,0-0.1,0-0.1,0c-0.1,0-0.1,0-0.2,0c-0.1,0-0.1,0-0.2,0c-0.1,0-0.1,0-0.2,0.1c-0.1,0-0.1,0-0.1,0.1c0,0-0.1,0.1-0.1,0.1
						c0,0-0.1,0.1-0.1,0.1c0,0,0,0-0.1,0.1l-27.9,54.2l-10.8-54c-0.1-0.5-0.6-0.8-1.1-0.7c-0.5,0.1-0.8,0.6-0.7,1.1l10.6,53.1
						l-46.2-53.9c0,0,0,0-0.1,0c0,0-0.1-0.1-0.1-0.1c0,0-0.1-0.1-0.2-0.1c-0.1,0-0.1,0-0.2,0c-0.1,0-0.1,0-0.2,0c-0.1,0-0.1,0-0.2,0
						c-0.1,0-0.1,0-0.2,0c0,0,0,0-0.1,0l-80.7,40.4c0,0,0,0-0.1,0.1c0,0-0.1,0.1-0.1,0.1c0,0-0.1,0.1-0.1,0.1c0,0-0.1,0.1-0.1,0.1
						c0,0.1,0,0.1-0.1,0.2c0,0,0,0.1,0,0.1c0,0,0,0.1,0,0.1c0,0.1,0,0.1,0,0.2c0,0.1,0,0.1,0,0.2c0,0,0,0.1,0,0.1c0,0,0,0.1,0.1,0.1
						c0,0,0,0,0,0.1c0.1,0.1,0.1,0.1,0.2,0.2c0,0,0,0,0,0c0.1,0,0.2,0.1,0.3,0.1c0,0,0,0,0,0l129.2,16.1c0,0,0.1,0,0.1,0
						c0,0,0,0,0,0c0,0,0,0,0,0l0,0l0,0c0,0,0,0,0,0c0,0,0,0,0,0c0.1,0,0.1,0,0.2,0c0,0,0,0,0,0c0,0,0,0,0,0c0,0,0,0,0,0l113-32.3
						c0,0,0,0,0,0c0,0,0,0,0,0c0,0,0.1,0,0.1,0c0.1,0,0.1,0,0.1-0.1c0,0,0,0,0,0c0,0,0,0,0,0c0,0,0,0,0-0.1c0,0,0.1-0.1,0.1-0.1
						c0,0,0-0.1,0-0.1c0,0,0-0.1,0-0.1c0,0,0,0,0,0c0,0,0,0,0-0.1C540.1,178.6,540.1,178.6,540.1,178.5z M377.5,155.4l46.5,54.2
						l-123.9-15.5L377.5,155.4z M514.8,155.4l21.2,21.2l-37.6-10.8L514.8,155.4z M535.9,178.5l-104.1,29.7l64.6-41.1L535.9,178.5z
						 M428.5,208.2l27.2-52.9l38.5,11.1L428.5,208.2z"/>
					<path class="st29" d="M297,58.3c0,0,0.1,0,0.1,0l125.1-15.6l-61.1,38.2c-0.4,0.3-0.5,0.8-0.3,1.2c0.2,0.3,0.5,0.4,0.8,0.4
						c0.2,0,0.3,0,0.5-0.1l62.8-39.3L414,97.6c-0.1,0.5,0.2,1,0.7,1.1c0.1,0,0.1,0,0.2,0c0.4,0,0.8-0.3,0.9-0.7l11-55.1l87.7,63.8
						c0.2,0.1,0.3,0.2,0.5,0.2c0.3,0,0.6-0.1,0.7-0.4c0.3-0.4,0.2-1-0.2-1.3l-88.8-64.6c0,0,0,0,0,0l0,0c0,0,0,0,0,0c0,0,0,0,0,0
						c0,0-0.1,0-0.1,0c0,0,0,0-0.1,0c0,0-0.1,0-0.1-0.1c0,0,0,0,0,0c0,0,0,0,0,0c0,0-0.1,0-0.1,0c0,0,0,0-0.1,0c0,0-0.1,0-0.1,0l0,0
						c0,0,0,0,0,0l0,0c0,0,0,0,0,0L296.9,56.5c-0.5,0.1-0.8,0.5-0.8,1C296.2,57.9,296.6,58.3,297,58.3z"/>
				</g>
				<g>
					<path class="st30" d="M563.9,122C563.9,122,563.9,121.9,563.9,122c0-0.1,0-0.1,0-0.2c0,0,0-0.1,0-0.1c0,0,0,0,0-0.1l-32.3-40.4
						c0,0,0,0,0,0c0,0,0,0,0,0L499.1,49c0,0,0,0,0,0c0,0,0,0,0,0c0,0,0,0,0,0c0,0,0,0-0.1,0c0,0,0,0,0,0c0,0,0,0-0.1,0c0,0,0,0,0,0
						l-72.7-8.1c-0.3,0-0.5,0.1-0.5,0.4c0,0.2,0.1,0.5,0.4,0.5l71.8,8l-40.8,51L415,97.3l-53.2-16.1L297.2,57
						c-0.2-0.1-0.5,0-0.6,0.3c-0.1,0.2,0,0.5,0.3,0.6L361.4,82c0,0,0,0,0,0c0,0,0,0,0,0l52.7,16l-36.8,56c-0.1,0.2-0.1,0.5,0.1,0.6
						c0.1,0,0.2,0.1,0.2,0.1c0.1,0,0.3-0.1,0.4-0.2L415,98.3l30.3,17.1L414.5,154c-0.2,0.2-0.1,0.5,0.1,0.6c0.1,0.1,0.2,0.1,0.3,0.1
						c0.1,0,0.3-0.1,0.4-0.2l30.9-38.6l68.6,38.7c0.1,0,0.1,0.1,0.2,0.1c0.2,0,0.3-0.1,0.4-0.2c0.1-0.2,0-0.5-0.2-0.6l-68.5-38.7
						l10.8-13.6l57.4,4.6c0,0,0,0,0,0c0.2,0,0.4-0.2,0.4-0.4c0-0.2-0.2-0.5-0.4-0.5l-56.8-4.6L498.9,50l31.9,31.9l32.1,40.1
						l-24,56.1l-48.2,24.1l-64.5,8.1c-0.2,0-0.4,0.3-0.4,0.5c0,0.2,0.2,0.4,0.4,0.4c0,0,0,0,0.1,0l64.6-8.1c0,0,0.1,0,0.1,0
						c0,0,0,0,0,0l48.4-24.2c0,0,0,0,0,0c0,0,0,0,0,0c0.1,0,0.1-0.1,0.1-0.1c0,0,0,0,0,0l24.2-56.5
						C563.8,122.1,563.8,122.1,563.9,122C563.8,122,563.9,122,563.9,122z M445.9,114.7l-29-16.4l39.6,3.2L445.9,114.7z"/>
				</g>
			</g>
			<g>
				<g>
					<path class="st32" d="M426.2,217.9c-0.5,0-0.9,0-1.4-0.1c-0.5-0.1-0.9-0.2-1.3-0.4c-0.4-0.2-0.9-0.4-1.2-0.7
						c-0.4-0.3-0.8-0.6-1.1-0.9c-0.3-0.3-0.6-0.7-0.9-1.1c-0.3-0.4-0.5-0.8-0.7-1.2c-0.2-0.4-0.3-0.9-0.4-1.3
						c-0.1-0.5-0.1-0.9-0.1-1.4c0-0.5,0-0.9,0.1-1.4c0.1-0.5,0.2-0.9,0.4-1.3c0.2-0.4,0.4-0.9,0.7-1.2c0.3-0.4,0.6-0.8,0.9-1.1
						c0.3-0.3,0.7-0.6,1.1-0.9c0.4-0.3,0.8-0.5,1.2-0.7c0.4-0.2,0.9-0.3,1.3-0.4c0.9-0.2,1.9-0.2,2.8,0c0.5,0.1,0.9,0.2,1.3,0.4
						c0.4,0.2,0.9,0.4,1.2,0.7c0.4,0.3,0.8,0.6,1.1,0.9c0.3,0.3,0.6,0.7,0.9,1.1c0.3,0.4,0.5,0.8,0.7,1.2c0.2,0.4,0.3,0.9,0.4,1.3
						c0.1,0.5,0.1,0.9,0.1,1.4c0,0.5,0,0.9-0.1,1.4c-0.1,0.5-0.2,0.9-0.4,1.3c-0.2,0.4-0.4,0.9-0.7,1.2c-0.3,0.4-0.6,0.8-0.9,1.1
						c-0.3,0.3-0.7,0.6-1.1,0.9c-0.4,0.3-0.8,0.5-1.2,0.7c-0.4,0.2-0.9,0.3-1.3,0.4C427.1,217.9,426.6,217.9,426.2,217.9z"/>
				</g>
				<g>
					<path class="st16" d="M490.8,205.4c-0.2,0-0.4,0-0.5-0.1c-0.2,0-0.3-0.1-0.5-0.2c-0.2-0.1-0.3-0.2-0.5-0.3
						c-0.1-0.1-0.3-0.2-0.4-0.3c-0.1-0.1-0.2-0.3-0.3-0.4c-0.1-0.1-0.2-0.3-0.3-0.5c-0.1-0.2-0.1-0.3-0.2-0.5c0-0.2-0.1-0.4-0.1-0.5
						c0-0.2,0-0.4,0.1-0.5c0-0.2,0.1-0.3,0.2-0.5c0.1-0.2,0.2-0.3,0.3-0.5c0.1-0.2,0.2-0.3,0.3-0.4c0.6-0.6,1.6-0.9,2.4-0.7
						c0.2,0,0.3,0.1,0.5,0.2c0.2,0.1,0.3,0.2,0.5,0.3c0.1,0.1,0.3,0.2,0.4,0.3c0.1,0.1,0.2,0.3,0.3,0.4c0.1,0.1,0.2,0.3,0.3,0.5
						c0.1,0.2,0.1,0.3,0.2,0.5c0,0.2,0.1,0.3,0.1,0.5c0,0.2,0,0.3-0.1,0.5c0,0.2-0.1,0.3-0.2,0.5c-0.1,0.2-0.2,0.3-0.3,0.5
						c-0.1,0.2-0.2,0.3-0.3,0.4c-0.1,0.1-0.3,0.2-0.4,0.3c-0.2,0.1-0.3,0.2-0.5,0.3c-0.2,0.1-0.3,0.1-0.5,0.2
						C491.1,205.4,490.9,205.4,490.8,205.4z"/>
				</g>
				<g>
					<path class="st16" d="M498.8,52c-0.2,0-0.4,0-0.5-0.1c-0.2,0-0.3-0.1-0.5-0.2c-0.2-0.1-0.3-0.2-0.5-0.3
						c-0.2-0.1-0.3-0.2-0.4-0.3c-0.1-0.1-0.2-0.3-0.3-0.4c-0.1-0.1-0.2-0.3-0.2-0.5c-0.1-0.2-0.1-0.3-0.2-0.5c0-0.2-0.1-0.3-0.1-0.5
						c0-0.7,0.3-1.4,0.8-1.9c0.6-0.6,1.6-0.9,2.4-0.7c0.2,0,0.3,0.1,0.5,0.2c0.2,0.1,0.3,0.2,0.5,0.3c0.2,0.1,0.3,0.2,0.4,0.3
						c0.1,0.1,0.2,0.3,0.3,0.4c0.1,0.1,0.2,0.3,0.3,0.5c0.1,0.2,0.1,0.3,0.2,0.5c0,0.2,0.1,0.3,0.1,0.5s0,0.3-0.1,0.5
						c0,0.2-0.1,0.3-0.2,0.5c-0.1,0.2-0.2,0.3-0.3,0.5c-0.1,0.2-0.2,0.3-0.3,0.4C500.2,51.7,499.5,52,498.8,52z"/>
				</g>
				<g>
					<path class="st29" d="M531.1,87c-0.4,0-0.7,0-1-0.1s-0.7-0.2-1-0.3c-0.3-0.1-0.6-0.3-0.9-0.5c-0.3-0.2-0.6-0.4-0.8-0.7
						c-0.3-0.2-0.5-0.5-0.7-0.8c-0.2-0.3-0.4-0.6-0.5-0.9c-0.1-0.3-0.2-0.7-0.3-1c-0.1-0.3-0.1-0.7-0.1-1c0-0.4,0-0.7,0.1-1
						c0.1-0.3,0.2-0.7,0.3-1c0.1-0.3,0.3-0.6,0.5-0.9c0.2-0.3,0.4-0.6,0.7-0.8c0.2-0.3,0.5-0.5,0.8-0.7c0.3-0.2,0.6-0.4,0.9-0.5
						c0.3-0.1,0.7-0.2,1-0.3c0.7-0.1,1.4-0.1,2.1,0c0.3,0.1,0.7,0.2,1,0.3c0.3,0.1,0.6,0.3,0.9,0.5c0.3,0.2,0.6,0.4,0.8,0.7
						c0.3,0.2,0.5,0.5,0.7,0.8c0.2,0.3,0.4,0.6,0.5,0.9c0.1,0.3,0.2,0.7,0.3,1c0.1,0.3,0.1,0.7,0.1,1c0,0.3,0,0.7-0.1,1
						c-0.1,0.3-0.2,0.7-0.3,1c-0.1,0.3-0.3,0.6-0.5,0.9c-0.2,0.3-0.4,0.6-0.7,0.8c-0.2,0.3-0.5,0.5-0.8,0.7
						c-0.3,0.2-0.6,0.4-0.9,0.5c-0.3,0.1-0.7,0.2-1,0.3S531.5,87,531.1,87z"/>
				</g>
				<g>
					<path class="st16" d="M563.4,125.6c-0.2,0-0.5,0-0.7-0.1c-0.2,0-0.5-0.1-0.7-0.2c-0.2-0.1-0.4-0.2-0.6-0.3
						c-0.2-0.1-0.4-0.3-0.5-0.4c-0.2-0.2-0.3-0.4-0.4-0.5c-0.1-0.2-0.2-0.4-0.3-0.6c-0.1-0.2-0.2-0.4-0.2-0.7c0-0.2-0.1-0.5-0.1-0.7
						c0-0.2,0-0.5,0.1-0.7c0-0.2,0.1-0.5,0.2-0.7c0.1-0.2,0.2-0.4,0.3-0.6c0.1-0.2,0.3-0.4,0.4-0.5c0.7-0.7,1.6-1,2.5-1
						c0.9,0,1.9,0.4,2.5,1c0.2,0.2,0.3,0.3,0.4,0.5c0.1,0.2,0.2,0.4,0.3,0.6c0.1,0.2,0.2,0.4,0.2,0.7c0,0.2,0.1,0.5,0.1,0.7
						c0,0.2,0,0.5-0.1,0.7c0,0.2-0.1,0.5-0.2,0.7c-0.1,0.2-0.2,0.4-0.3,0.6c-0.1,0.2-0.3,0.4-0.4,0.5c-0.2,0.2-0.4,0.3-0.5,0.4
						c-0.2,0.1-0.4,0.2-0.6,0.3c-0.2,0.1-0.4,0.2-0.7,0.2C563.9,125.5,563.6,125.6,563.4,125.6z"/>
				</g>
				<g>
					<path class="st29" d="M539.2,183.9c-0.4,0-0.7,0-1-0.1c-0.3-0.1-0.7-0.2-1-0.3c-0.3-0.1-0.6-0.3-0.9-0.5
						c-0.3-0.2-0.6-0.4-0.8-0.7c-1-1-1.6-2.4-1.6-3.8c0-0.4,0-0.7,0.1-1c0.1-0.4,0.2-0.7,0.3-1c0.1-0.3,0.3-0.6,0.5-0.9
						c0.2-0.3,0.4-0.6,0.7-0.8c1.2-1.3,3.1-1.8,4.9-1.5c0.3,0.1,0.7,0.2,1,0.3c0.3,0.1,0.6,0.3,0.9,0.5c0.3,0.2,0.6,0.4,0.8,0.7
						c0.3,0.3,0.5,0.5,0.7,0.8c0.2,0.3,0.4,0.6,0.5,0.9c0.1,0.3,0.2,0.7,0.3,1c0.1,0.3,0.1,0.7,0.1,1c0,1.4-0.6,2.8-1.6,3.8
						c-0.3,0.3-0.5,0.5-0.8,0.7c-0.3,0.2-0.6,0.4-0.9,0.5c-0.3,0.1-0.7,0.2-1,0.3C539.9,183.8,539.5,183.9,539.2,183.9z"/>
				</g>
				<g>
					<path class="st29" d="M426.2,48.4c-0.5,0-0.9,0-1.4-0.1c-0.5-0.1-0.9-0.2-1.3-0.4c-0.4-0.2-0.9-0.4-1.2-0.7
						c-0.4-0.3-0.8-0.6-1.1-0.9c-1.3-1.3-2.1-3.2-2.1-5.1c0-0.5,0-0.9,0.1-1.4c0.1-0.5,0.2-0.9,0.4-1.3c0.2-0.4,0.4-0.9,0.7-1.2
						c0.3-0.4,0.6-0.8,0.9-1.1c0.3-0.3,0.7-0.6,1.1-0.9c0.4-0.3,0.8-0.5,1.2-0.7c0.4-0.2,0.9-0.3,1.3-0.4c0.9-0.2,1.9-0.2,2.8,0
						c0.5,0.1,0.9,0.2,1.3,0.4c0.4,0.2,0.9,0.4,1.2,0.7c0.4,0.3,0.8,0.6,1.1,0.9c0.3,0.3,0.6,0.7,0.9,1.1c0.3,0.4,0.5,0.8,0.7,1.2
						c0.2,0.4,0.3,0.9,0.4,1.3c0.1,0.5,0.1,0.9,0.1,1.4c0,1.9-0.8,3.7-2.1,5.1c-0.3,0.3-0.7,0.6-1.1,0.9c-0.4,0.3-0.8,0.5-1.2,0.7
						c-0.4,0.2-0.9,0.3-1.3,0.4C427.1,48.4,426.6,48.4,426.2,48.4z"/>
				</g>
			</g>
		</g>
		<g>
			<g>
				<g>
					<path class="st30" d="M297.4,57.2c-0.1-0.2-0.4-0.3-0.6-0.2l-99.9,48.3L96.6,49.6l71.3-7.9c0.2,0,0.4-0.2,0.4-0.5
						c0-0.2-0.2-0.4-0.5-0.4l-72.7,8.1c0,0,0,0,0,0c0,0,0,0-0.1,0c0,0,0,0,0,0c0,0,0,0-0.1,0c0,0,0,0,0,0c0,0,0,0,0,0L62.6,81.3
						c0,0,0,0,0,0c0,0,0,0,0,0l-32.3,40.4c0,0,0,0,0,0.1c0,0,0,0.1,0,0.1c0,0,0,0.1,0,0.1c0,0,0,0.1,0,0.1c0,0,0,0.1,0,0.1
						c0,0,0,0,0,0.1l24.2,56.5c0,0,0,0,0,0c0,0.1,0.1,0.1,0.1,0.1c0,0,0,0,0,0c0,0,0,0,0,0l48.4,24.2c0,0,0,0,0,0c0,0,0.1,0,0.1,0
						l64.6,8.1c0,0,0,0,0.1,0c0.2,0,0.4-0.2,0.4-0.4c0-0.2-0.1-0.5-0.4-0.5l-63.8-8l26.7-36.4l31.1-5.3l70.5,18.2l0.1-0.4l0.3-0.4
						l-35.5-24.2l-0.3,0.4l-0.1-0.4l-34.9,6l-23-5.9l0,0c-0.2,0-0.4,0-0.5,0.2l-8.2,11.2L55.1,178l-24-55.9l32-40h40.1
						c0.2,0,0.4-0.2,0.4-0.4s-0.2-0.4-0.4-0.4H64l31.3-31.3l99.9,55.5h-56.4c-0.2,0-0.4,0.2-0.4,0.4s0.2,0.4,0.4,0.4h58.1
						c0.1,0,0.1,0,0.2,0c0,0,0,0,0,0l100.1-48.4C297.4,57.7,297.5,57.4,297.4,57.2z M196.8,154.7l33.2,22.7l-66-17.1L196.8,154.7z
						 M138.9,154.8l20.8,5.4l-28.2,4.8L138.9,154.8z M103.1,202.1l-46.9-23.4l73.2-12.5L103.1,202.1z"/>
				</g>
				<g>
					<path class="st29" d="M297.9,194.5c0-0.1,0-0.1-0.1-0.2c0,0,0-0.1,0-0.1c0,0-0.1-0.1-0.1-0.1c0,0-0.1-0.1-0.1-0.1
						c0,0-0.1,0-0.1-0.1c-0.1,0-0.1-0.1-0.2-0.1c0,0,0,0,0,0l-64.6-16.1c0,0-0.1,0-0.1,0c-0.1,0-0.1,0-0.2,0c-0.1,0-0.1,0-0.2,0.1
						c0,0-0.1,0-0.1,0l-62.1,31.1l27.8-54.1c0.2-0.4,0.1-1-0.4-1.2c-0.4-0.2-1-0.1-1.2,0.4l-28.3,55l-28.3-55
						c-0.2-0.4-0.6-0.6-1-0.4l0,0l-84,24.2l0,0c-0.3,0.1-0.5,0.3-0.6,0.6c-0.1,0.5,0.1,1,0.6,1.1l113,32.3c0,0,0,0,0,0c0,0,0,0,0,0
						c0,0,0,0,0,0c0.1,0,0.1,0,0.2,0c0,0,0,0,0,0c0,0,0,0,0,0c0,0,0,0,0,0c0,0,0.1,0,0.1,0l129.2-16.1c0,0,0,0,0.1,0
						c0.1,0,0.1,0,0.2-0.1c0,0,0.1,0,0.1-0.1c0.1,0,0.1-0.1,0.2-0.1c0,0,0.1,0,0.1-0.1c0-0.1,0.1-0.1,0.1-0.2c0,0,0-0.1,0-0.1
						c0,0,0,0,0,0c0-0.1,0-0.1,0-0.2C297.9,194.6,297.9,194.6,297.9,194.5C297.9,194.5,297.9,194.5,297.9,194.5z M232.5,179.4
						l59.6,14.9l-119.2,14.9L232.5,179.4z M166.1,209.3l-108-30.9l80.2-23.1L166.1,209.3z"/>
					<path class="st29" d="M103.2,82.5c0.2,0,0.3,0,0.5-0.1l62.1-38.8l-27.9,61.9c-0.2,0.5,0,1,0.5,1.2c0.1,0.1,0.2,0.1,0.4,0.1
						c0.3,0,0.7-0.2,0.8-0.5l28.2-62.8l28.2,62.8c0.1,0.3,0.5,0.5,0.8,0.5c0.1,0,0.2,0,0.4-0.1c0.5-0.2,0.7-0.7,0.5-1.2l-28.4-63.1
						l127.6,15.9c0,0,0.1,0,0.1,0c0.4,0,0.8-0.3,0.9-0.8c0.1-0.5-0.3-0.9-0.8-1L167.9,40.3c0,0,0,0,0,0c0,0,0,0-0.1,0
						c0,0-0.1,0-0.1,0c0,0-0.1,0-0.1,0c0,0-0.1,0-0.1,0c0,0,0,0-0.1,0c0,0,0,0,0,0c0,0,0,0-0.1,0c0,0,0,0-0.1,0l-64.6,40.4
						c-0.4,0.3-0.5,0.8-0.3,1.2C102.7,82.3,102.9,82.5,103.2,82.5z"/>
				</g>
			</g>
			<g>
				<g>
					<g>
						<path class="st30" d="M30.6,125.6c-0.9,0-1.9-0.4-2.5-1c-0.2-0.2-0.3-0.4-0.4-0.5c-0.1-0.2-0.2-0.4-0.3-0.6
							c-0.1-0.2-0.2-0.4-0.2-0.7c0-0.2-0.1-0.5-0.1-0.7c0-0.2,0-0.5,0.1-0.7c0-0.2,0.1-0.5,0.2-0.7c0.1-0.2,0.2-0.4,0.3-0.6
							c0.1-0.2,0.3-0.4,0.4-0.5c0.8-0.8,2.1-1.2,3.2-1c0.2,0,0.5,0.1,0.7,0.2c0.2,0.1,0.4,0.2,0.6,0.3c0.2,0.1,0.4,0.3,0.5,0.4
							c0.2,0.2,0.3,0.3,0.4,0.5c0.1,0.2,0.2,0.4,0.3,0.6c0.1,0.2,0.2,0.4,0.2,0.7c0,0.2,0.1,0.5,0.1,0.7c0,0.2,0,0.5-0.1,0.7
							c0,0.2-0.1,0.5-0.2,0.7c-0.1,0.2-0.2,0.4-0.3,0.6c-0.1,0.2-0.3,0.4-0.4,0.5c-0.2,0.2-0.4,0.3-0.5,0.4
							c-0.2,0.1-0.4,0.2-0.6,0.3c-0.2,0.1-0.4,0.2-0.7,0.2C31.1,125.5,30.8,125.6,30.6,125.6z"/>
					</g>
				</g>
				<g>
					<g>
						<path class="st30" d="M95.2,52c-0.7,0-1.4-0.3-1.9-0.8c-0.5-0.5-0.8-1.2-0.8-1.9s0.3-1.4,0.8-1.9c0.6-0.6,1.6-0.9,2.4-0.7
							c0.2,0,0.3,0.1,0.5,0.2c0.2,0.1,0.3,0.2,0.5,0.3c0.1,0.1,0.3,0.2,0.4,0.3c0.5,0.5,0.8,1.2,0.8,1.9s-0.3,1.4-0.8,1.9
							c-0.1,0.1-0.3,0.2-0.4,0.3c-0.1,0.1-0.3,0.2-0.5,0.3c-0.2,0.1-0.3,0.1-0.5,0.2C95.5,52,95.4,52,95.2,52z"/>
					</g>
				</g>
				<g>
					<g>
						<path class="st30" d="M103.2,205.4c-0.2,0-0.4,0-0.5-0.1c-0.2,0-0.3-0.1-0.5-0.2c-0.2-0.1-0.3-0.2-0.5-0.3
							c-0.1-0.1-0.3-0.2-0.4-0.3c-0.1-0.1-0.2-0.3-0.3-0.4c-0.1-0.2-0.2-0.3-0.3-0.5c-0.1-0.2-0.1-0.3-0.2-0.5
							c0-0.2-0.1-0.4-0.1-0.5c0-0.2,0-0.4,0.1-0.5c0-0.2,0.1-0.3,0.2-0.5c0.1-0.2,0.2-0.3,0.3-0.5c0.1-0.2,0.2-0.3,0.3-0.4
							c0.1-0.1,0.3-0.2,0.4-0.3c0.2-0.1,0.3-0.2,0.5-0.3c0.2-0.1,0.3-0.1,0.5-0.2c0.3-0.1,0.7-0.1,1.1,0c0.2,0,0.3,0.1,0.5,0.2
							c0.2,0.1,0.3,0.2,0.5,0.3c0.1,0.1,0.3,0.2,0.4,0.3c0.1,0.1,0.2,0.3,0.3,0.4c0.1,0.1,0.2,0.3,0.3,0.5c0.1,0.2,0.1,0.3,0.2,0.5
							c0,0.2,0.1,0.3,0.1,0.5c0,0.2,0,0.3-0.1,0.5c0,0.2-0.1,0.3-0.2,0.5c-0.1,0.2-0.2,0.3-0.3,0.5c-0.1,0.1-0.2,0.3-0.3,0.4
							c-0.1,0.1-0.3,0.2-0.4,0.3c-0.1,0.1-0.3,0.2-0.5,0.3c-0.2,0.1-0.3,0.1-0.5,0.2C103.6,205.4,103.4,205.4,103.2,205.4z"/>
					</g>
				</g>
				<g>
					<path class="st29" d="M297,62.8c-0.4,0-0.7,0-1-0.1s-0.7-0.2-1-0.3c-0.3-0.1-0.6-0.3-0.9-0.5c-0.3-0.2-0.6-0.4-0.8-0.7
						c-0.3-0.2-0.5-0.5-0.7-0.8c-0.2-0.3-0.4-0.6-0.5-0.9c-0.1-0.3-0.2-0.7-0.3-1c-0.1-0.3-0.1-0.7-0.1-1c0-0.4,0-0.7,0.1-1
						c0.1-0.4,0.2-0.7,0.3-1c0.1-0.3,0.3-0.6,0.5-0.9c0.2-0.3,0.4-0.6,0.7-0.8c1.2-1.3,3.1-1.8,4.9-1.5c0.3,0.1,0.7,0.2,1,0.3
						c0.3,0.1,0.6,0.3,0.9,0.5c0.3,0.2,0.6,0.4,0.8,0.7c0.3,0.2,0.5,0.5,0.7,0.8c0.2,0.3,0.4,0.6,0.5,0.9c0.1,0.3,0.2,0.7,0.3,1
						c0.1,0.3,0.1,0.7,0.1,1c0,0.3,0,0.7-0.1,1c-0.1,0.3-0.2,0.7-0.3,1c-0.1,0.3-0.3,0.6-0.5,0.9c-0.2,0.3-0.4,0.6-0.7,0.8
						C299.8,62.2,298.4,62.8,297,62.8z"/>
				</g>
				<g>
					<path class="st29" d="M62.9,87c-0.4,0-0.7,0-1-0.1c-0.4-0.1-0.7-0.2-1-0.3c-0.3-0.1-0.6-0.3-0.9-0.5c-0.3-0.2-0.6-0.4-0.8-0.7
						c-0.3-0.2-0.5-0.5-0.7-0.8c-0.2-0.3-0.4-0.6-0.5-0.9c-0.1-0.3-0.2-0.7-0.3-1c-0.1-0.3-0.1-0.7-0.1-1c0-0.4,0-0.7,0.1-1
						c0.1-0.4,0.2-0.7,0.3-1c0.1-0.3,0.3-0.6,0.5-0.9c0.2-0.3,0.4-0.6,0.7-0.8c0.2-0.3,0.5-0.5,0.8-0.7c0.3-0.2,0.6-0.4,0.9-0.5
						c0.3-0.1,0.7-0.2,1-0.3c0.7-0.1,1.4-0.1,2.1,0c0.3,0.1,0.7,0.2,1,0.3c0.3,0.1,0.6,0.3,0.9,0.5c0.3,0.2,0.6,0.4,0.8,0.7
						c0.3,0.2,0.5,0.5,0.7,0.8c0.2,0.3,0.4,0.6,0.5,0.9c0.1,0.3,0.2,0.7,0.3,1c0.1,0.3,0.1,0.7,0.1,1c0,0.3,0,0.7-0.1,1
						c-0.1,0.3-0.2,0.7-0.3,1c-0.1,0.3-0.3,0.6-0.5,0.9c-0.2,0.3-0.4,0.6-0.7,0.8c-0.3,0.3-0.5,0.5-0.8,0.7
						c-0.3,0.2-0.6,0.4-0.9,0.5c-0.3,0.1-0.7,0.2-1,0.3C63.6,86.9,63.2,87,62.9,87z"/>
				</g>
				<g>
					<path class="st32" d="M167.8,217.9c-0.5,0-0.9,0-1.4-0.1c-0.5-0.1-0.9-0.2-1.3-0.4c-0.4-0.2-0.9-0.4-1.2-0.7
						c-0.4-0.3-0.8-0.6-1.1-0.9c-1.3-1.3-2.1-3.2-2.1-5.1c0-0.5,0-0.9,0.1-1.4c0.1-0.5,0.2-0.9,0.4-1.3c0.2-0.4,0.4-0.9,0.7-1.2
						c0.3-0.4,0.6-0.8,0.9-1.1c0.3-0.3,0.7-0.6,1.1-0.9c0.4-0.3,0.8-0.5,1.2-0.7c0.4-0.2,0.9-0.3,1.3-0.4c0.9-0.2,1.9-0.2,2.8,0
						c0.5,0.1,0.9,0.2,1.3,0.4c0.4,0.2,0.9,0.4,1.2,0.7c0.4,0.3,0.8,0.6,1.1,0.9c0.3,0.3,0.6,0.7,0.9,1.1c0.3,0.4,0.5,0.8,0.7,1.2
						c0.2,0.4,0.3,0.9,0.4,1.3c0.1,0.5,0.1,0.9,0.1,1.4c0,1.9-0.8,3.7-2.1,5.1c-0.3,0.3-0.7,0.6-1.1,0.9c-0.4,0.3-0.8,0.5-1.2,0.7
						c-0.4,0.2-0.9,0.3-1.3,0.4C168.8,217.9,168.3,217.9,167.8,217.9z"/>
				</g>
				<g>
					<path class="st29" d="M167.8,48.4c-0.5,0-0.9,0-1.4-0.1c-0.5-0.1-0.9-0.2-1.3-0.4c-0.4-0.2-0.9-0.4-1.2-0.7
						c-0.4-0.3-0.8-0.6-1.1-0.9c-1.3-1.3-2.1-3.2-2.1-5.1c0-0.5,0-0.9,0.1-1.4c0.1-0.5,0.2-0.9,0.4-1.3c0.2-0.4,0.4-0.9,0.7-1.2
						c0.3-0.4,0.6-0.8,0.9-1.1c0.3-0.3,0.7-0.6,1.1-0.9c0.4-0.3,0.8-0.5,1.2-0.7c0.4-0.2,0.9-0.3,1.3-0.4c0.9-0.2,1.9-0.2,2.8,0
						c0.5,0.1,0.9,0.2,1.3,0.4c0.4,0.2,0.9,0.4,1.2,0.7c0.4,0.3,0.8,0.6,1.1,0.9c0.3,0.3,0.6,0.7,0.9,1.1c0.3,0.4,0.5,0.8,0.7,1.2
						c0.2,0.4,0.3,0.9,0.4,1.3c0.1,0.5,0.1,0.9,0.1,1.4c0,1.9-0.8,3.7-2.1,5.1C171.6,47.6,169.7,48.4,167.8,48.4z"/>
				</g>
				<g>
					<path class="st29" d="M54.8,183.9c-1.4,0-2.8-0.6-3.8-1.6c-1-1-1.6-2.4-1.6-3.8s0.6-2.8,1.6-3.8c1-1,2.4-1.6,3.8-1.6
						s2.8,0.6,3.8,1.6c1,1,1.6,2.4,1.6,3.8s-0.6,2.8-1.6,3.8C57.6,183.3,56.2,183.9,54.8,183.9z"/>
				</g>
			</g>
		</g>
		<g>
			<g>
				<path class="st17" d="M402,102.2c-15.3,0-27.8,12.5-27.8,27.8v20.2c-0.1,0.1-0.1,0.1-0.2,0.2c-0.3,0.2-0.5,0.5-0.7,0.8
					c-0.2,0.3-0.4,0.6-0.5,0.9c-0.1,0.3-0.2,0.7-0.3,1c-0.1,0.3-0.1,0.7-0.1,1c0,0.3,0,0.7,0.1,1c0.1,0.3,0.2,0.7,0.3,1
					c0.1,0.3,0.3,0.6,0.5,0.9c0.2,0.3,0.4,0.6,0.7,0.8c0.2,0.3,0.5,0.5,0.8,0.7c0.3,0.2,0.6,0.4,0.9,0.5c0.3,0.1,0.7,0.2,1,0.3
					c0.3,0.1,0.7,0.1,1,0.1c0.3,0,0.7,0,1-0.1c0.3-0.1,0.7-0.2,1-0.3c0.3-0.1,0.6-0.3,0.9-0.5c0.3-0.2,0.6-0.4,0.8-0.7
					c0.3-0.3,0.5-0.5,0.7-0.8c0.2-0.3,0.4-0.6,0.5-0.9c0.1-0.3,0.2-0.7,0.3-1c0.1-0.3,0.1-0.7,0.1-1c0-0.4,0-0.7-0.1-1
					c-0.1-0.4-0.2-0.7-0.3-1c-0.1-0.3-0.3-0.6-0.5-0.9c-0.2-0.3-0.4-0.6-0.7-0.8c-0.1-0.1-0.1-0.1-0.2-0.2V130
					c0-11.4,9.3-20.6,20.6-20.6c2,0,3.6-1.6,3.6-3.6S403.9,102.2,402,102.2z"/>
				<path class="st17" d="M419.8,95.7c-0.1-0.3-0.3-0.6-0.5-0.9c-0.2-0.3-0.4-0.6-0.7-0.8c-0.2-0.3-0.5-0.5-0.8-0.7
					c-0.3-0.2-0.6-0.4-0.9-0.5c-0.3-0.1-0.7-0.2-1-0.3c-0.7-0.1-1.4-0.1-2.1,0c-0.3,0.1-0.7,0.2-1,0.3c-0.3,0.1-0.6,0.3-0.9,0.5
					c-0.3,0.2-0.6,0.4-0.8,0.7c-0.3,0.2-0.5,0.5-0.7,0.8c-0.2,0.3-0.4,0.6-0.5,0.9c-0.1,0.3-0.2,0.7-0.3,1c-0.1,0.3-0.1,0.7-0.1,1
					c0,0.3,0,0.7,0.1,1c0.1,0.3,0.2,0.7,0.3,1c0.1,0.3,0.3,0.6,0.5,0.9c0.2,0.3,0.4,0.6,0.7,0.8c0.2,0.3,0.5,0.5,0.8,0.7
					c0.3,0.2,0.6,0.4,0.9,0.5c0.3,0.1,0.7,0.2,1,0.3c0.3,0.1,0.7,0.1,1,0.1c0.4,0,0.7,0,1-0.1c0.4-0.1,0.7-0.2,1-0.3
					c0.3-0.1,0.6-0.3,0.9-0.5c0.3-0.2,0.6-0.4,0.8-0.7c0.3-0.2,0.5-0.5,0.7-0.8c0.2-0.3,0.4-0.6,0.5-0.9c0.1-0.3,0.2-0.7,0.3-1
					c0.1-0.3,0.1-0.7,0.1-1c0-0.4,0-0.7-0.1-1C420.1,96.3,420,96,419.8,95.7z"/>
				<path class="st17" d="M419.8,152.2c-0.1-0.3-0.3-0.6-0.5-0.9c-0.2-0.3-0.4-0.6-0.7-0.8c-0.1-0.1-0.1-0.1-0.2-0.2v-36.4
					c0-2-1.6-3.6-3.6-3.6s-3.6,1.6-3.6,3.6v36.4c-0.1,0.1-0.1,0.1-0.2,0.2c-0.3,0.2-0.5,0.5-0.7,0.8c-0.2,0.3-0.4,0.6-0.5,0.9
					c-0.1,0.3-0.2,0.7-0.3,1c-0.1,0.3-0.1,0.7-0.1,1c0,0.3,0,0.7,0.1,1c0.1,0.3,0.2,0.7,0.3,1c0.1,0.3,0.3,0.6,0.5,0.9
					c0.2,0.3,0.4,0.6,0.7,0.8c0.2,0.3,0.5,0.5,0.8,0.7c0.3,0.2,0.6,0.4,0.9,0.5c0.3,0.1,0.7,0.2,1,0.3c0.4,0.1,0.7,0.1,1,0.1
					c0.4,0,0.7,0,1-0.1c0.3-0.1,0.7-0.2,1-0.3c0.3-0.1,0.6-0.3,0.9-0.5c0.3-0.2,0.6-0.4,0.8-0.7c0.3-0.2,0.5-0.5,0.7-0.8
					c0.2-0.3,0.4-0.6,0.5-0.9c0.1-0.3,0.2-0.7,0.3-1c0.1-0.3,0.1-0.7,0.1-1c0-0.4,0-0.7-0.1-1C420.1,152.9,420,152.5,419.8,152.2z"
					/>
				<path class="st17" d="M481.3,110.8c-1.7-1-3.9-0.5-4.9,1.2l-21.1,35.2L434.1,112c-1-1.7-3.2-2.3-4.9-1.2c-1.7,1-2.3,3.2-1.2,4.9
					l22.2,36.9c-0.2,0.5-0.2,1-0.2,1.6c0,1.4,0.6,2.8,1.6,3.8c0.3,0.3,0.5,0.5,0.8,0.7c0.3,0.2,0.6,0.4,0.9,0.5
					c0.3,0.1,0.7,0.2,1,0.3c0.4,0.1,0.7,0.1,1,0.1c1.4,0,2.8-0.6,3.8-1.6c1-1,1.6-2.4,1.6-3.8c0-0.5-0.1-1.1-0.2-1.6l22.2-36.9
					C483.5,114,483,111.8,481.3,110.8z"/>
				<path class="st17" d="M360.4,76.3c-0.3,0.1-0.7,0.2-1,0.3c-0.3,0.1-0.6,0.3-0.9,0.5c-0.3,0.2-0.6,0.4-0.8,0.7
					c-1,1-1.6,2.4-1.6,3.8s0.6,2.8,1.6,3.8c0.1,0.1,0.1,0.1,0.2,0.2v25.8c-5.1-5.6-12.5-9.2-20.6-9.2c-15.3,0-27.8,12.5-27.8,27.8
					s12.5,27.8,27.8,27.8c15.3,0,27.8-12.5,27.8-27.8V85.6c0.1-0.1,0.2-0.1,0.2-0.2c1-1,1.6-2.4,1.6-3.8s-0.6-2.8-1.6-3.8
					C364,76.5,362.1,76,360.4,76.3z M337.2,150.7c-11.4,0-20.6-9.3-20.6-20.6s9.3-20.6,20.6-20.6s20.6,9.3,20.6,20.6
					S348.6,150.7,337.2,150.7z"/>
				<path class="st17" d="M519.2,102.6c-0.1-0.2-0.3-0.4-0.5-0.5c-0.2-0.3-0.5-0.5-0.8-0.7c-0.3-0.2-0.6-0.4-0.9-0.5
					c-0.3-0.1-0.7-0.2-1-0.3c-0.7-0.1-1.4-0.1-2.1,0c-0.3,0.1-0.7,0.2-1,0.3c-0.3,0.1-0.6,0.3-0.9,0.5c-0.3,0.2-0.6,0.4-0.8,0.7
					c-0.2,0.2-0.3,0.4-0.5,0.5c-13.3,2.1-23.5,13.6-23.5,27.5c0,13.9,10.2,25.4,23.5,27.5c0.1,0.2,0.3,0.4,0.5,0.5
					c0.2,0.3,0.5,0.5,0.8,0.7c0.3,0.2,0.6,0.4,0.9,0.5c0.3,0.1,0.7,0.2,1,0.3c0.3,0.1,0.7,0.1,1,0.1c0.3,0,0.7,0,1-0.1
					c0.3-0.1,0.7-0.2,1-0.3c0.3-0.1,0.6-0.3,0.9-0.5c0.3-0.2,0.6-0.4,0.8-0.7c1-1,1.6-2.4,1.6-3.8s-0.6-2.8-1.6-3.8
					c-0.2-0.3-0.5-0.5-0.8-0.7c-0.3-0.2-0.6-0.4-0.9-0.5c-0.3-0.1-0.7-0.2-1-0.3c-0.7-0.1-1.4-0.1-2.1,0c-0.3,0.1-0.7,0.2-1,0.3
					c-0.3,0.1-0.6,0.3-0.9,0.5c-0.2,0.2-0.5,0.4-0.7,0.6c-8.5-1.5-15.1-8.2-16.6-16.7h44.5c2,0,3.6-1.6,3.6-3.6
					C542.8,116.2,532.6,104.6,519.2,102.6z M494.7,126.4c1.5-8.5,8.2-15.2,16.6-16.7c0.2,0.2,0.4,0.4,0.7,0.6
					c0.3,0.2,0.6,0.4,0.9,0.5c0.3,0.1,0.7,0.2,1,0.3c0.3,0.1,0.7,0.1,1,0.1c0.3,0,0.7,0,1-0.1c0.3-0.1,0.7-0.2,1-0.3
					c0.3-0.1,0.6-0.3,0.9-0.5c0.2-0.2,0.5-0.4,0.7-0.6c8.5,1.5,15.1,8.2,16.6,16.7H494.7z"/>
			</g>
			<g>
				<path class="st17" d="M143,102.6c-0.1-0.2-0.3-0.4-0.5-0.5c-1-1-2.4-1.6-3.8-1.6S136,101,135,102c-0.2,0.2-0.3,0.4-0.5,0.5
					c-13.3,2.1-23.5,13.6-23.5,27.5s10.2,25.4,23.5,27.5c0.1,0.2,0.3,0.4,0.5,0.5c1,1,2.4,1.6,3.8,1.6c0.4,0,0.7,0,1-0.1
					c0.3-0.1,0.7-0.2,1-0.3c0.3-0.1,0.6-0.3,0.9-0.5c0.3-0.2,0.6-0.4,0.8-0.7c0.3-0.2,0.5-0.5,0.7-0.8c0.2-0.3,0.4-0.6,0.5-0.9
					c0.1-0.3,0.2-0.7,0.3-1c0.1-0.3,0.1-0.7,0.1-1c0-1.4-0.6-2.8-1.6-3.8c-1-1-2.4-1.6-3.8-1.6c-1.4,0-2.7,0.5-3.7,1.5
					c-8.5-1.5-15.1-8.2-16.6-16.7H163c2,0,3.6-1.6,3.6-3.6C166.6,116.2,156.4,104.6,143,102.6z M118.4,126.4
					c1.5-8.5,8.2-15.2,16.6-16.7c1,0.9,2.3,1.5,3.7,1.5c0.4,0,0.7,0,1-0.1s0.7-0.2,1-0.3c0.3-0.1,0.6-0.3,0.9-0.5
					c0.2-0.2,0.5-0.4,0.7-0.6c8.5,1.5,15.2,8.2,16.7,16.7H118.4z"/>
				<path class="st17" d="M201.2,102.6c-0.1-0.2-0.3-0.4-0.5-0.5c-0.2-0.3-0.5-0.5-0.8-0.7c-0.3-0.2-0.6-0.4-0.9-0.5
					c-0.3-0.1-0.7-0.2-1-0.3c-0.7-0.1-1.4-0.1-2.1,0c-0.3,0.1-0.7,0.2-1,0.3c-0.3,0.1-0.6,0.3-0.9,0.5c-0.3,0.2-0.6,0.4-0.8,0.7
					c-0.2,0.2-0.3,0.4-0.5,0.5c-13.3,2.1-23.5,13.6-23.5,27.5c0,13.9,10.2,25.4,23.5,27.5c0.1,0.2,0.3,0.4,0.5,0.5
					c1,1,2.4,1.6,3.8,1.6s2.8-0.6,3.8-1.6c1-1,1.6-2.4,1.6-3.8c0-0.4,0-0.7-0.1-1c-0.1-0.4-0.2-0.7-0.3-1c-0.1-0.3-0.3-0.6-0.5-0.9
					c-0.2-0.3-0.4-0.6-0.7-0.8c-1-1-2.4-1.6-3.8-1.6c-1.4,0-2.7,0.5-3.7,1.5c-8.5-1.5-15.1-8.2-16.6-16.7h44.5c2,0,3.6-1.6,3.6-3.6
					C224.7,116.2,214.5,104.6,201.2,102.6z M176.6,126.4c1.5-8.5,8.2-15.2,16.7-16.7c0.2,0.2,0.4,0.4,0.7,0.6
					c0.3,0.2,0.6,0.4,0.9,0.5c0.3,0.1,0.7,0.2,1,0.3c0.4,0.1,0.7,0.1,1,0.1c0.4,0,0.7,0,1-0.1c0.3-0.1,0.7-0.2,1-0.3
					c0.3-0.1,0.6-0.3,0.9-0.5c0.2-0.2,0.5-0.4,0.7-0.6c8.5,1.5,15.2,8.2,16.7,16.7H176.6z"/>
				<path class="st17" d="M108.2,79.5c-0.1-0.3-0.3-0.6-0.5-0.9c-0.2-0.3-0.4-0.6-0.7-0.8c-1.2-1.3-3.1-1.8-4.9-1.5
					c-0.4,0.1-0.7,0.2-1,0.3c-0.3,0.1-0.6,0.3-0.9,0.5c-0.3,0.2-0.6,0.4-0.8,0.7c-1,1-1.6,2.4-1.6,3.8s0.6,2.8,1.6,3.8
					c0.1,0.1,0.1,0.1,0.2,0.2v25.8c-5.1-5.6-12.5-9.2-20.6-9.2c-15.3,0-27.8,12.5-27.8,27.8s12.5,27.8,27.8,27.8
					s27.8-12.5,27.8-27.8V85.6c0.1-0.1,0.1-0.1,0.2-0.2c1-1,1.6-2.4,1.6-3.8c0-0.4,0-0.7-0.1-1C108.4,80.2,108.3,79.9,108.2,79.5z
					 M79,150.7c-11.4,0-20.6-9.3-20.6-20.6s9.3-20.6,20.6-20.6s20.6,9.3,20.6,20.6S90.4,150.7,79,150.7z"/>
				<path class="st17" d="M256.6,102.2c-15.3,0-27.8,12.5-27.8,27.8v44.4c-0.1,0.1-0.1,0.1-0.2,0.2c-0.3,0.2-0.5,0.5-0.7,0.8
					s-0.4,0.6-0.5,0.9c-0.1,0.3-0.2,0.7-0.3,1c-0.1,0.3-0.1,0.7-0.1,1c0,1.4,0.6,2.8,1.6,3.8c0.2,0.3,0.5,0.5,0.8,0.7
					c0.3,0.2,0.6,0.4,0.9,0.5c0.3,0.1,0.7,0.2,1,0.3c0.3,0.1,0.7,0.1,1,0.1c0.3,0,0.7,0,1-0.1c0.3-0.1,0.7-0.2,1-0.3
					c0.3-0.1,0.6-0.3,0.9-0.5c0.3-0.2,0.6-0.4,0.8-0.7c1-1,1.6-2.4,1.6-3.8c0-0.4,0-0.7-0.1-1c-0.1-0.3-0.2-0.7-0.3-1
					c-0.1-0.3-0.3-0.6-0.5-0.9c-0.2-0.3-0.4-0.6-0.7-0.8c-0.1-0.1-0.1-0.1-0.2-0.2v-25.8c5.1,5.6,12.5,9.2,20.6,9.2
					c15.3,0,27.8-12.5,27.8-27.8S272,102.2,256.6,102.2z M256.6,150.7c-11.4,0-20.6-9.3-20.6-20.6s9.3-20.6,20.6-20.6
					s20.6,9.3,20.6,20.6S268,150.7,256.6,150.7z"/>
			</g>
			<g>
				<path class="st29" d="M297,200c-0.4,0-0.7,0-1-0.1c-0.3-0.1-0.7-0.2-1-0.3c-0.3-0.1-0.6-0.3-0.9-0.5c-0.3-0.2-0.6-0.4-0.8-0.7
					c-0.3-0.2-0.5-0.5-0.7-0.8c-0.2-0.3-0.4-0.6-0.5-0.9c-0.1-0.3-0.2-0.7-0.3-1c-0.1-0.3-0.1-0.7-0.1-1c0-0.4,0-0.7,0.1-1
					c0.1-0.4,0.2-0.7,0.3-1c0.1-0.3,0.3-0.6,0.5-0.9c0.2-0.3,0.4-0.6,0.7-0.8c1.2-1.2,3.1-1.8,4.9-1.5c0.3,0.1,0.7,0.2,1,0.3
					c0.3,0.1,0.6,0.3,0.9,0.5c0.3,0.2,0.6,0.4,0.8,0.7c0.3,0.2,0.5,0.5,0.7,0.8c0.2,0.3,0.4,0.6,0.5,0.9c0.1,0.3,0.2,0.7,0.3,1
					c0.1,0.3,0.1,0.7,0.1,1c0,0.3,0,0.7-0.1,1c-0.1,0.3-0.2,0.7-0.3,1c-0.1,0.3-0.3,0.6-0.5,0.9c-0.2,0.3-0.4,0.6-0.7,0.8
					C299.8,199.4,298.4,200,297,200z"/>
			</g>
		</g>
	</g>
</g>
<g id="Layer_4">
</g>
<g id="Layer_3" class="st40">
</g>
<g id="Layer_2">
</g>
<g id="Layer_5">
</g>
</svg>
