<svg xmlns="http://www.w3.org/2000/svg" xmlns:xlink="http://www.w3.org/1999/xlink" version="1.2" baseProfile="tiny" x="0px" y="0px" viewBox="0 0 100 100" xml:space="preserve"><path d="M65,7.5c-5.466,0-10.586,1.469-15,4.023C45.586,8.969,40.466,7.5,35,7.5c-16.569,0-30,13.431-30,30  c0,8.284,3.358,15.784,8.787,21.213L50,94.926l36.213-36.213C91.642,53.284,95,45.784,95,37.5C95,20.931,81.569,7.5,65,7.5z   M80.91,53.41L50,84.32L19.09,53.41c-4.25-4.25-6.59-9.9-6.59-15.91C12.5,25.093,22.593,15,35,15c3.947,0,7.835,1.042,11.243,3.015  L50,20.189l3.757-2.174C57.165,16.042,61.053,15,65,15c12.407,0,22.5,10.093,22.5,22.5C87.5,43.51,85.16,49.16,80.91,53.41z"></path><path d="M66.239,41.011l4.497-2.596l-2.5-4.33l-4.504,2.6c-0.855-1.083-1.833-2.062-2.917-2.917l2.6-4.504l-4.33-2.5l-2.596,4.497  C55.225,30.755,53.888,30.4,52.5,30.2V25h-5v5.2c-1.388,0.2-2.725,0.555-3.989,1.062l-2.596-4.497l-4.33,2.5l2.6,4.504  c-1.083,0.855-2.062,1.833-2.917,2.917l-4.504-2.6l-2.5,4.33l4.497,2.596C33.255,42.275,32.9,43.612,32.7,45h-5.2v5h5.2  c0.2,1.388,0.555,2.725,1.062,3.989l-4.497,2.596l2.5,4.33l4.504-2.6c0.855,1.083,1.833,2.062,2.917,2.917l-2.6,4.504l4.33,2.5  l2.596-4.497c1.264,0.507,2.601,0.862,3.989,1.062V70h5v-5.2c1.388-0.2,2.725-0.555,3.989-1.062l2.596,4.497l4.33-2.5l-2.6-4.504  c1.083-0.855,2.062-1.833,2.917-2.917l4.504,2.6l2.5-4.33l-4.497-2.596C66.745,52.725,67.1,51.388,67.3,50h5.2v-5h-5.2  C67.1,43.612,66.745,42.275,66.239,41.011z M50,45c1.378,0,2.5,1.122,2.5,2.5S51.378,50,50,50s-2.5-1.122-2.5-2.5S48.622,45,50,45z   M38.151,51.454C37.735,50.21,37.5,48.883,37.5,47.5c0-6.037,4.301-11.087,10-12.248v5.186c-2.908,1.033-5,3.804-5,7.063  c0,0.468,0.049,0.924,0.131,1.368L38.151,51.454z M50,60c-3.716,0-7.048-1.639-9.34-4.221l4.474-2.583  C46.445,54.318,48.143,55,50,55s3.555-0.682,4.866-1.804l4.474,2.583C57.048,58.361,53.716,60,50,60z M61.849,51.454l-4.48-2.586  c0.082-0.444,0.131-0.9,0.131-1.368c0-3.258-2.092-6.03-5-7.063v-5.186c5.699,1.161,10,6.211,10,12.248  C62.5,48.883,62.265,50.21,61.849,51.454z"></path></svg>